<svg xmlns="http://www.w3.org/2000/svg" xmlns:xlink="http://www.w3.org/1999/xlink" width="220.58" height="68.46" viewBox="0 0 220.58 68.46">
  <defs>
    <filter id="Rectangle_5103" x="0" y="0" width="220.58" height="68.46" filterUnits="userSpaceOnUse">
      <feOffset dy="3" input="SourceAlpha"/>
      <feGaussianBlur stdDeviation="3" result="blur"/>
      <feFlood flood-opacity="0.161"/>
      <feComposite operator="in" in2="blur"/>
      <feComposite in="SourceGraphic"/>
    </filter>
  </defs>
  <g id="Group_8540" data-name="Group 8540" transform="translate(-610.473 -1705)">
    <g transform="matrix(1, 0, 0, 1, 610.47, 1705)" filter="url(#Rectangle_5103)">
      <rect id="Rectangle_5103-2" data-name="Rectangle 5103" width="202.58" height="50.46" rx="8" transform="translate(9 6)" fill="#fff"/>
    </g>
    <g id="Group_8470" data-name="Group 8470" transform="translate(631.473 1724)">
      <g id="Iconly_Light_Document" data-name="Iconly/Light/Document" transform="translate(0 3.158)">
        <g id="Document">
          <path id="Stroke_1" data-name="Stroke 1" d="M7.22.5H0" transform="translate(4.746 12.974)" fill="none" stroke="#306cf6" stroke-linecap="round" stroke-linejoin="round" stroke-width="1.5"/>
          <path id="Stroke_2" data-name="Stroke 2" d="M7.22.5H0" transform="translate(4.746 8.787)" fill="none" stroke="#306cf6" stroke-linecap="round" stroke-linejoin="round" stroke-width="1.5"/>
          <path id="Stroke_3" data-name="Stroke 3" d="M2.755.5H0" transform="translate(4.746 4.61)" fill="none" stroke="#306cf6" stroke-linecap="round" stroke-linejoin="round" stroke-width="1.5"/>
          <path id="Stroke_4" data-name="Stroke 4" d="M12.158,0,4.469,0A4.251,4.251,0,0,0,0,4.607v9.2A4.254,4.254,0,0,0,4.506,18.41l7.689,0a4.252,4.252,0,0,0,4.47-4.6v-9.2A4.255,4.255,0,0,0,12.158,0Z" fill="none" stroke="#306cf6" stroke-linecap="round" stroke-linejoin="round" stroke-width="1.5"/>
        </g>
      </g>
      <g id="Group_8469" data-name="Group 8469" transform="translate(23.613)">
        <text id="Memberships_Revenue" data-name="Memberships Revenue" transform="translate(0 9)" fill="#415279" font-size="9" font-family="Nunito" font-weight="700" letter-spacing="-0.047em"><tspan x="0" y="0">Memberships Revenue</tspan></text>
        <text id="Aug_11_2022" data-name="Aug 11,2022" transform="translate(132.273 7.5)" fill="#67707d" font-size="4" font-family="Nunito" letter-spacing="-0.047em"><tspan x="0" y="0">Aug 11,2022</tspan></text>
        <text id="View_the_revenue_report_form_the_memberships" data-name="View the revenue report form the memberships" transform="translate(0 21.725)" fill="#363636" font-size="8" font-family="Nunito" letter-spacing="-0.047em"><tspan x="0" y="0">View the revenue report form the memberships</tspan></text>
      </g>
    </g>
  </g>
</svg>
