<svg xmlns="http://www.w3.org/2000/svg" xmlns:xlink="http://www.w3.org/1999/xlink" width="212" height="126" viewBox="0 0 212 126">
  <defs>
    <filter id="Rectangle_395" x="0" y="0" width="212" height="126" filterUnits="userSpaceOnUse">
      <feOffset dy="3" input="SourceAlpha"/>
      <feGaussianBlur stdDeviation="3" result="blur"/>
      <feFlood flood-opacity="0.161"/>
      <feComposite operator="in" in2="blur"/>
      <feComposite in="SourceGraphic"/>
    </filter>
    <linearGradient id="linear-gradient" x1="0.019" y1="0.536" x2="0.952" y2="0.536" gradientUnits="objectBoundingBox">
      <stop offset="0" stop-color="#fff"/>
      <stop offset="1"/>
    </linearGradient>
    <linearGradient id="linear-gradient-2" x1="0.063" y1="0.545" x2="1.016" y2="0.545" gradientUnits="objectBoundingBox">
      <stop offset="0"/>
      <stop offset="1" stop-color="#fff"/>
    </linearGradient>
    <linearGradient id="linear-gradient-3" x1="0.502" y1="1.31" x2="0.502" y2="0.378" gradientUnits="objectBoundingBox">
      <stop offset="0"/>
      <stop offset="0.096" stop-color="#1c1c1c"/>
      <stop offset="0.433" stop-color="#7c7c7c"/>
      <stop offset="0.706" stop-color="#c2c2c2"/>
      <stop offset="0.901" stop-color="#eee"/>
      <stop offset="1" stop-color="#fff"/>
    </linearGradient>
    <radialGradient id="radial-gradient" cx="0.5" cy="0.5" r="0.5" xlink:href="#linear-gradient-2"/>
  </defs>
  <g id="Group_8461" data-name="Group 8461" transform="translate(-941 -1524.5)">
    <g transform="matrix(1, 0, 0, 1, 941, 1524.5)" filter="url(#Rectangle_395)">
      <rect id="Rectangle_395-2" data-name="Rectangle 395" width="194" height="108" rx="8" transform="translate(9 6)" fill="#fff"/>
    </g>
    <g id="Group_655" data-name="Group 655" transform="translate(12.25 -13.032)">
      <path id="Path_2620" data-name="Path 2620" d="M-272.438,194.966a37.1,37.1,0,0,0,10.649,26.418,37.1,37.1,0,0,0,26.21,11.15l.354-37.213Z" transform="translate(1310.434 1409.793)" fill="#d08968"/>
      <path id="Path_2654" data-name="Path 2654" d="M0,0A37.1,37.1,0,0,0,10.65,26.418a37.1,37.1,0,0,0,26.21,11.15L37.215.355Z" transform="translate(1075.599 1568.874) rotate(90)" fill="#d08968"/>
      <path id="Path_2623" data-name="Path 2623" d="M-236.018,156.248a21.817,21.817,0,0,0-6.766,15.569l22.581.211h0l.215-22.1A22.766,22.766,0,0,0-236.018,156.248Z" transform="translate(1295.413 1433.198)" fill="#ffe4b7" style="mix-blend-mode: multiply;isolation: isolate"/>
      <path id="Path_2655" data-name="Path 2655" d="M-236.018,166.042a22.514,22.514,0,0,1-6.766-15.9l22.581-.215h0l.215,22.581A22.511,22.511,0,0,1-236.018,166.042Z" transform="translate(1295.413 1454.837)" fill="#ffe4b7" style="mix-blend-mode: multiply;isolation: isolate"/>
      <path id="Path_2624" data-name="Path 2624" d="M-163.536,114.676a46.767,46.767,0,0,0-33.04-14.056l-.447,46.91h0l46.91.447A46.766,46.766,0,0,0-163.536,114.676Z" transform="translate(1272.232 1458.172)" fill="#ffc86d"/>
      <path id="Path_2625" data-name="Path 2625" d="M-180.9,156.69a22.512,22.512,0,0,0-15.9-6.766l-.215,22.581h0l22.581.215A22.51,22.51,0,0,0-180.9,156.69Z" transform="translate(1272.232 1433.197)" fill="#ffc86d" style="mix-blend-mode: multiply;isolation: isolate"/>
      <rect id="Rectangle_310" data-name="Rectangle 310" transform="translate(1075.209 1605.702)" fill="#ffae45"/>
      <path id="Path_2626" data-name="Path 2626" d="M-197.023,195.685Z" transform="translate(1272.232 1410.017)" fill="#ffae45"/>
      <path id="Path_2627" data-name="Path 2627" d="M-197.023,195.685Z" transform="translate(1272.232 1410.017)" fill="#ffae45"/>
      <path id="Path_2628" data-name="Path 2628" d="M-197.35,195.685h0l-.318,33.455a33.352,33.352,0,0,0,23.749-9.573A33.352,33.352,0,0,0-163.894,196Z" transform="translate(1272.559 1410.017)" fill="#e3dfea"/>
      <path id="Path_2629" data-name="Path 2629" d="M-207.691,113.057l-.386,36.5,5.455.047.39-36.827A45.908,45.908,0,0,0-207.691,113.057Z" transform="translate(1277.832 1456.099)" opacity="0.08" fill="url(#linear-gradient)" style="mix-blend-mode: multiply;isolation: isolate"/>
      <rect id="Rectangle_311" data-name="Rectangle 311" transform="translate(1075.209 1605.702)" fill="#ffae45"/>
      <path id="Path_2631" data-name="Path 2631" d="M-197.023,195.685Z" transform="translate(1272.232 1410.017)" fill="#ffae45"/>
      <path id="Path_2632" data-name="Path 2632" d="M-197.023,195.685Z" transform="translate(1272.232 1410.017)" fill="#ffae45"/>
      <path id="Path_2633" data-name="Path 2633" d="M-197.244,195.685h0l-.215,22.581a22.513,22.513,0,0,0,16.03-6.462,22.511,22.511,0,0,0,6.766-15.9Z" transform="translate(1272.453 1410.017)" fill="#e3dfea" style="mix-blend-mode: multiply;isolation: isolate"/>
      <path id="Path_2634" data-name="Path 2634" d="M-190.925,195.746l-6.425-.061-.318,33.455a33.662,33.662,0,0,0,6.43-.558Z" transform="translate(1272.559 1410.017)" opacity="0.08" fill="url(#linear-gradient-2)" style="mix-blend-mode: multiply;isolation: isolate"/>
      <path id="Path_2635" data-name="Path 2635" d="M-196.965,183.4l-.058,6.061h0l46.91.447a47.361,47.361,0,0,0-.331-6.065Z" transform="translate(1272.232 1416.239)" opacity="0.08" fill="url(#linear-gradient-3)" style="mix-blend-mode: multiply;isolation: isolate"/>
      <path id="Path_2636" data-name="Path 2636" d="M-195.149,174.806a16.131,16.131,0,0,0-11.4-4.848,16.13,16.13,0,0,0-11.488,4.631,16.132,16.132,0,0,0-4.849,11.4,16.132,16.132,0,0,0,4.631,11.488,16.131,16.131,0,0,0,11.4,4.849,16.132,16.132,0,0,0,11.488-4.631,16.132,16.132,0,0,0,4.849-11.4A16.134,16.134,0,0,0-195.149,174.806ZM-206.7,186.14Z" transform="translate(1285.332 1423.05)" opacity="0.83" fill="url(#radial-gradient)" style="mix-blend-mode: multiply;isolation: isolate"/>
      <path id="Path_2637" data-name="Path 2637" d="M-202.083,167.739a16.132,16.132,0,0,0-11.4-4.849,16.132,16.132,0,0,0-11.488,4.631,16.133,16.133,0,0,0-4.849,11.4,16.13,16.13,0,0,0,4.631,11.488,16.131,16.131,0,0,0,11.4,4.849,16.13,16.13,0,0,0,11.488-4.631,16.131,16.131,0,0,0,4.849-11.4A16.132,16.132,0,0,0-202.083,167.739Zm-11.552,11.334Z" transform="translate(1288.844 1426.63)" fill="#fff"/>
      <text id="Platinum_51_" data-name="Platinum  (51%)" transform="translate(973.544 1579)" fill="#343434" font-size="7" font-family="Nunito" font-weight="500" letter-spacing="-0.047em"><tspan x="0" y="0" xml:space="preserve">Platinum  </tspan><tspan y="0" fill="#67707d">(51%)</tspan></text>
      <text id="Golden_29_" data-name="Golden (29%)" transform="translate(973.544 1603)" fill="#343434" font-size="7" font-family="Nunito" font-weight="500" letter-spacing="-0.047em"><tspan x="0" y="0">Golden </tspan><tspan y="0" fill="#67707d">(29%)</tspan></text>
      <text id="Sliver_20_" data-name="Sliver (20%)" transform="translate(973.544 1627.353)" fill="#343434" font-size="7" font-family="Nunito" font-weight="500" letter-spacing="-0.047em"><tspan x="0" y="0">Sliver </tspan><tspan y="0" fill="#67707d">(20%)</tspan></text>
      <rect id="Rectangle_312" data-name="Rectangle 312" width="11.862" height="11.862" rx="2" transform="translate(956.75 1571)" fill="#d08968"/>
      <rect id="Rectangle_313" data-name="Rectangle 313" width="11.862" height="11.862" rx="2" transform="translate(956.75 1595)" fill="#ffc86d"/>
      <rect id="Rectangle_314" data-name="Rectangle 314" width="11.862" height="11.862" rx="2" transform="translate(956.75 1619.353)" fill="#e3dfea"/>
      <text id="Members_Types" data-name="Members Types" transform="translate(946.75 1558.792)" fill="#415279" font-size="7" font-family="Nunito" font-weight="500" letter-spacing="-0.047em"><tspan x="0" y="0">Members Types</tspan></text>
    </g>
  </g>
</svg>
