<svg xmlns="http://www.w3.org/2000/svg" width="17.773" height="18.15" viewBox="0 0 17.773 18.15">
  <g id="Iconly_Light_Graph" data-name="Iconly/Light/Graph" transform="translate(0.75 0.75)">
    <g id="Graph">
      <path id="Stroke_1" data-name="Stroke 1" d="M12.568,6.7a.924.924,0,0,1,.955,1.026A6.8,6.8,0,0,1,0,6.658,7.077,7.077,0,0,1,5,.028.911.911,0,0,1,6.15.873c0,3.968.133,4.994.887,5.552S8.676,6.7,12.568,6.7Z" transform="translate(0 3.19)" fill="none" stroke="#306cf6" stroke-linecap="round" stroke-linejoin="round" stroke-width="1.5"/>
      <path id="Stroke_3" data-name="Stroke 3" d="M7.484,6.588C7.529,4.039,4.4-.07.582,0A.569.569,0,0,0,.034.549c-.1,2.1.034,4.812.106,6.043A.747.747,0,0,0,.846,7.3a34.1,34.1,0,0,0,6.147-.141A.583.583,0,0,0,7.484,6.588Z" transform="translate(8.788 0)" fill="none" stroke="#306cf6" stroke-linecap="round" stroke-linejoin="round" stroke-width="1.5"/>
    </g>
  </g>
</svg>
