<svg xmlns="http://www.w3.org/2000/svg" width="16.5" height="15.351" viewBox="0 0 16.5 15.351">
  <g id="Iconly_Light_Wallet" data-name="Iconly/Light/Wallet" transform="translate(0.75 0.75)">
    <g id="Wallet">
      <path id="Stroke_1" data-name="Stroke 1" d="M5.283,4.219H2.11A2.109,2.109,0,1,1,2.11,0H5.283" transform="translate(9.717 4.713)" fill="none" stroke="#306cf6" stroke-linecap="round" stroke-linejoin="round" stroke-width="1.5"/>
      <path id="Stroke_3" data-name="Stroke 3" d="M.544.456H.3" transform="translate(11.642 6.318)" fill="none" stroke="#306cf6" stroke-linecap="round" stroke-linejoin="round" stroke-width="1.5"/>
      <path id="Stroke_5" data-name="Stroke 5" d="M4.113,0h6.774A4.113,4.113,0,0,1,15,4.113V9.738a4.113,4.113,0,0,1-4.113,4.113H4.113A4.113,4.113,0,0,1,0,9.738V4.113A4.113,4.113,0,0,1,4.113,0Z" fill="none" stroke="#306cf6" stroke-linecap="round" stroke-linejoin="round" stroke-width="1.5"/>
      <path id="Stroke_7" data-name="Stroke 7" d="M0,.456H4.231" transform="translate(3.555 3.101)" fill="none" stroke="#306cf6" stroke-linecap="round" stroke-linejoin="round" stroke-width="1.5"/>
    </g>
  </g>
</svg>
