<svg xmlns="http://www.w3.org/2000/svg" width="17.773" height="13.791" viewBox="0 0 17.773 13.791">
  <g id="Iconly_Light_3_User" data-name="Iconly/Light/3 User" transform="translate(0.75 0.75)">
    <g id="_3_User" data-name="3 User">
      <path id="Stroke_1" data-name="Stroke 1" d="M0,4.563A2.31,2.31,0,0,0,1.984,2.28,2.31,2.31,0,0,0,.053,0" transform="translate(12.954 0.78)" fill="none" stroke="#306cf6" stroke-linecap="round" stroke-linejoin="round" stroke-width="1.5"/>
      <path id="Stroke_3" data-name="Stroke 3" d="M0,0C1.084.162,1.841.543,1.841,1.326c0,.539-.356.89-.933,1.11" transform="translate(14.431 8.038)" fill="none" stroke="#306cf6" stroke-linecap="round" stroke-linejoin="round" stroke-width="1.5"/>
      <path id="Stroke_5" data-name="Stroke 5" d="M4.783,0C2.2,0,0,.391,0,1.955S2.19,3.92,4.783,3.92s4.782-.387,4.782-1.952S7.377,0,4.783,0Z" transform="translate(3.353 8.371)" fill="none" stroke="#306cf6" stroke-linecap="round" stroke-linejoin="round" stroke-width="1.5"/>
      <path id="Stroke_7" data-name="Stroke 7" d="M3.065,6.139a3.054,3.054,0,1,0-.022,0Z" transform="translate(5.071)" fill="none" stroke="#306cf6" stroke-linecap="round" stroke-linejoin="round" stroke-width="1.5"/>
      <path id="Stroke_9" data-name="Stroke 9" d="M1.984,4.563A2.309,2.309,0,0,1,1.931,0" transform="translate(1.335 0.78)" fill="none" stroke="#306cf6" stroke-linecap="round" stroke-linejoin="round" stroke-width="1.5"/>
      <path id="Stroke_11" data-name="Stroke 11" d="M1.841,0C.757.162,0,.543,0,1.326c0,.539.356.89.933,1.11" transform="translate(0 8.038)" fill="none" stroke="#306cf6" stroke-linecap="round" stroke-linejoin="round" stroke-width="1.5"/>
    </g>
  </g>
</svg>
