<svg xmlns="http://www.w3.org/2000/svg" width="17.773" height="16.96" viewBox="0 0 17.773 16.96">
  <g id="Iconly_Light_2_User" data-name="Iconly/Light/2 User" transform="translate(0.75 0.75)">
    <g id="_2_User" data-name="2 User">
      <path id="Stroke_1" data-name="Stroke 1" d="M6.025,0C9.273,0,12.05.492,12.05,2.459S9.292,4.931,6.025,4.931C2.776,4.931,0,4.443,0,2.476S2.757,0,6.025,0Z" transform="translate(0 10.529)" fill="none" stroke="#306cf6" stroke-linecap="round" stroke-linejoin="round" stroke-width="1.5"/>
      <path id="Stroke_3" data-name="Stroke 3" d="M3.862,7.722a3.848,3.848,0,1,1,.027,0Z" transform="translate(2.163)" fill="none" stroke="#306cf6" stroke-linecap="round" stroke-linejoin="round" stroke-width="1.5"/>
      <path id="Stroke_5" data-name="Stroke 5" d="M0,5.739A2.907,2.907,0,0,0,2.5,2.867,2.906,2.906,0,0,0,.066,0" transform="translate(12.093 0.981)" fill="none" stroke="#306cf6" stroke-linecap="round" stroke-linejoin="round" stroke-width="1.5"/>
      <path id="Stroke_7" data-name="Stroke 7" d="M0,0C1.366.2,2.319.682,2.319,1.669c0,.679-.449,1.119-1.175,1.395" transform="translate(13.953 10.111)" fill="none" stroke="#306cf6" stroke-linecap="round" stroke-linejoin="round" stroke-width="1.5"/>
    </g>
  </g>
</svg>
